<?xml version="1.0" standalone="no"?>
<!DOCTYPE svg PUBLIC "-//W3C//DTD SVG 20010904//EN"
 "http://www.w3.org/TR/2001/REC-SVG-20010904/DTD/svg10.dtd">
<svg version="1.0" xmlns="http://www.w3.org/2000/svg"
 width="145.000000pt" height="145.000000pt" viewBox="0 0 145.000000 145.000000"
 preserveAspectRatio="xMidYMid meet">
<metadata>
Created by potrace 1.14, written by Peter Selinger 2001-2017
</metadata>
<g transform="translate(0.000000,145.000000) scale(0.100000,-0.100000)"
fill="#000000" stroke="none">
<path d="M1001 1374 c-1 -5 -8 -19 -16 -30 -14 -18 -14 -18 -8 4 9 35 -13 26
-25 -10 -5 -18 -10 -25 -11 -15 -2 28 -21 19 -21 -10 0 -25 -1 -26 -14 -8 -12
17 -15 18 -30 3 -9 -9 -13 -24 -10 -32 5 -12 2 -15 -10 -10 -19 7 -19 4 -6
-31 9 -24 8 -25 -10 -15 -24 13 -25 9 -4 -33 l15 -32 -20 25 c-24 31 -35 22
-21 -16 9 -23 9 -27 -1 -16 -18 17 -30 15 -22 -5 5 -12 2 -15 -10 -10 -21 8
-21 4 -1 -36 l17 -32 -22 19 c-23 21 -28 8 -10 -27 9 -18 9 -20 -2 -9 -24 22
-39 14 -32 -18 3 -19 1 -30 -6 -30 -7 0 -8 -8 0 -26 8 -23 7 -25 -4 -15 -12 9
-16 7 -20 -10 -3 -12 -2 -32 3 -45 7 -18 6 -22 -5 -17 -23 8 -18 -12 13 -48
26 -32 16 -32 -20 -1 -24 21 -25 -4 -1 -32 10 -12 11 -15 3 -8 -46 40 -50 -30
-4 -80 l29 -31 -36 21 c-43 26 -53 27 -45 7 3 -8 2 -15 -3 -15 -16 0 -5 -91
15 -117 l20 -27 -35 -68 c-19 -37 -32 -70 -29 -73 3 -4 23 28 43 70 30 59 43
76 64 81 53 12 59 15 64 35 3 11 5 20 4 22 0 1 17 20 39 42 21 22 47 52 57 67
16 26 16 27 0 21 -12 -4 -9 1 7 15 14 12 22 21 18 22 -5 0 2 10 14 22 15 15
18 23 9 26 -9 3 -8 9 5 23 21 23 12 24 -22 3 -13 -9 -27 -14 -30 -11 -3 3 8
13 25 22 17 8 31 21 31 29 0 7 11 19 25 26 14 7 25 17 25 21 0 10 -23 2 -80
-28 -25 -13 -34 -16 -20 -6 57 42 123 98 120 103 -2 3 2 16 9 29 8 14 9 21 2
17 -15 -9 -14 7 1 22 16 16 22 55 7 46 -7 -4 -7 1 1 16 7 12 14 40 15 62 3 35
2 38 -13 26 -9 -7 -5 1 9 17 15 17 26 38 26 48 0 22 -6 22 -36 -5 -24 -22 -24
-21 2 11 39 48 24 52 -18 5 l-36 -39 21 43 c12 24 19 49 16 55 -2 7 -5 8 -5 1z
m-157 -270 c3 -8 2 -12 -4 -9 -6 3 -10 10 -10 16 0 14 7 11 14 -7z m136 -58
c0 -2 -8 -10 -17 -17 -16 -13 -17 -12 -4 4 13 16 21 21 21 13z m-130 -300 c0
-2 -7 -7 -16 -10 -8 -3 -12 -2 -9 4 6 10 25 14 25 6z"/>
<path d="M710 400 c0 -5 5 -10 11 -10 5 0 7 5 4 10 -3 6 -8 10 -11 10 -2 0 -4
-4 -4 -10z"/>
<path d="M616 373 c-12 -12 -5 -23 14 -23 11 0 20 4 20 9 0 11 -26 22 -34 14z"/>
<path d="M547 304 c-4 -4 -2 -13 4 -21 9 -10 7 -13 -9 -13 -12 0 -24 -4 -27
-10 -3 -5 -15 -10 -25 -10 -10 0 -22 -5 -26 -11 -13 -22 14 -30 75 -23 50 5
61 10 61 25 0 11 -4 19 -10 19 -5 0 -9 10 -7 22 2 22 -22 36 -36 22z"/>
</g>
</svg>
